<?xml version="1.0" encoding="utf-8"?>
<!-- Generator: Adobe Illustrator 25.0.0, SVG Export Plug-In . SVG Version: 6.00 Build 0)  -->
<svg version="1.1" id="Layer_1" xmlns="http://www.w3.org/2000/svg" xmlns:xlink="http://www.w3.org/1999/xlink" x="0px" y="0px"
	 viewBox="0 0 256 256" style="enable-background:new 0 0 256 256;" xml:space="preserve">
<style type="text/css">
	.st0{fill:none;stroke:#FFFFFF;stroke-width:5;stroke-miterlimit:10;}
	.st1{fill:none;stroke:#FFFFFF;stroke-width:3;stroke-miterlimit:10;}
	.st2{fill:none;stroke:#FFFFFF;stroke-width:4;stroke-miterlimit:10;}
	.st3{fill:#FFFFFF;stroke:#569FD2;stroke-miterlimit:10;}
	.st4{fill:none;stroke:#569FD2;stroke-miterlimit:10;}
</style>
<g>
	<g>
		<rect x="15.33" y="153.18" class="st0" width="225.33" height="94.6"/>
		<rect x="89.21" y="96.29" class="st0" width="77.58" height="56.89"/>
		<polygon class="st0" points="42.66,8.22 42.66,36.53 42.66,38.1 89.21,96.29 166.79,96.29 213.34,38.1 213.34,36.53 213.34,8.22 
					"/>
		<line class="st1" x1="41.68" y1="36.53" x2="166.97" y2="36.53"/>
	</g>
	<g>
		<circle class="st2" cx="75.92" cy="201.84" r="16.5"/>
		<circle class="st2" cx="75.92" cy="201.84" r="3.99"/>
	</g>
	<g>
		<circle class="st2" cx="178.25" cy="201.84" r="22.61"/>
		<circle class="st2" cx="178.25" cy="201.84" r="3.99"/>
	</g>
	<line class="st2" x1="75.92" y1="185.34" x2="178.25" y2="179.23"/>
	<line class="st2" x1="75.92" y1="218.34" x2="178.25" y2="224.46"/>
</g>
<g>
	<g>
		<polygon class="st3" points="475.7,104.08 503.99,116.43 500.8,123.92 472.51,111.57 		"/>
		<polygon class="st3" points="433.31,94.44 417.32,72.67 417.32,23.69 392.46,23.69 392.46,72.67 374.69,94.44 287.67,132.54 
			287.67,232.31 520.33,232.31 520.33,132.54 		"/>
		<g>
			<line class="st3" x1="288.94" y1="132.54" x2="405.7" y2="132.54"/>
			<line class="st3" x1="288.32" y1="145.23" x2="519.42" y2="145.23"/>
		</g>
		<line class="st3" x1="289.27" y1="217.8" x2="518.73" y2="217.8"/>
		<line class="st3" x1="374.69" y1="94.44" x2="433.31" y2="94.44"/>
		<line class="st3" x1="392.99" y1="72.67" x2="417.86" y2="72.67"/>
	</g>
	<g>
		<g>
			<path class="st3" d="M455.09,190.05c-22.87,0-42.5,1.73-51.09,4.21c-8.59-2.47-28.22-4.21-51.09-4.21
				c-30.78,0-55.74,3.13-55.74,7c0,3.87,24.95,7,55.74,7c22.87,0,42.5-1.73,51.09-4.21c8.59,2.47,28.22,4.21,51.09,4.21
				c30.78,0,55.74-3.13,55.74-7C510.83,193.18,485.87,190.05,455.09,190.05z"/>
		</g>
		<rect x="399.31" y="186.47" class="st3" width="10.22" height="31.33"/>
	</g>
</g>
<g>
	<g>
		<polygon class="st3" points="750.06,84.45 777.44,96.2 774.35,103.32 746.97,91.57 		"/>
		<polygon class="st3" points="750.49,93.39 708.37,75.28 700.63,64.93 692.89,54.58 692.89,31.29 692.89,8 680.86,8 668.82,8 
			668.82,31.29 668.82,54.58 660.23,64.93 651.63,75.28 609.51,93.39 567.39,111.51 567.39,158.95 567.39,206.39 675.47,219.2 
			675.47,246.83 684.53,246.83 684.53,219.2 792.61,206.39 792.61,158.95 792.61,111.51 		"/>
		<line class="st3" x1="652.29" y1="75.28" x2="709.02" y2="75.28"/>
		<line class="st3" x1="670" y1="54.58" x2="694.07" y2="54.58"/>
		<g>
			<line class="st3" x1="568.98" y1="123.58" x2="791.71" y2="123.58"/>
			<line class="st3" x1="569.6" y1="197.79" x2="791.71" y2="197.79"/>
			<line class="st3" x1="569.6" y1="179.29" x2="791.71" y2="179.29"/>
		</g>
		<line class="st3" x1="570.73" y1="111.51" x2="681.38" y2="111.51"/>
	</g>
	<rect x="675.05" y="138.91" class="st3" width="9.9" height="58.45"/>
	<g>
		<rect x="577.75" y="146.46" class="st3" width="204.49" height="7.46"/>
		<g>
			<g>
				<polyline class="st4" points="583.39,154.58 583.39,163.25 586.63,168.53 581.9,173.82 586.63,179.1 581.9,184.3 586.63,190.64 
									"/>
				<polyline class="st4" points="598.73,154.58 598.73,163.25 601.97,168.53 597.24,173.82 601.97,179.1 597.24,184.3 
					601.97,190.64 				"/>
				<polyline class="st4" points="614.07,154.58 614.07,163.25 617.31,168.53 612.58,173.82 617.31,179.1 612.58,184.3 
					617.31,190.64 				"/>
				<polyline class="st4" points="629.41,154.58 629.41,163.25 632.65,168.53 627.92,173.82 632.65,179.1 627.92,184.3 
					632.65,190.64 				"/>
				<polyline class="st4" points="644.75,154.58 644.75,163.25 647.99,168.53 643.26,173.82 647.99,179.1 643.26,184.3 
					647.99,190.64 				"/>
				<polyline class="st4" points="660.09,154.58 660.09,163.25 663.33,168.53 658.6,173.82 663.33,179.1 658.6,184.3 663.33,190.64 
									"/>
			</g>
			<g>
				<polyline class="st4" points="698.15,154.58 698.15,163.25 701.39,168.53 696.67,173.82 701.39,179.1 696.67,184.3 
					701.39,190.64 				"/>
				<polyline class="st4" points="713.49,154.58 713.49,163.25 716.73,168.53 712.01,173.82 716.73,179.1 712.01,184.3 
					716.73,190.64 				"/>
				<polyline class="st4" points="728.83,154.58 728.83,163.25 732.07,168.53 727.35,173.82 732.07,179.1 727.35,184.3 
					732.07,190.64 				"/>
				<polyline class="st4" points="744.17,154.58 744.17,163.25 747.41,168.53 742.69,173.82 747.41,179.1 742.69,184.3 
					747.41,190.64 				"/>
				<polyline class="st4" points="759.51,154.58 759.51,163.25 762.75,168.53 758.03,173.82 762.75,179.1 758.03,184.3 
					762.75,190.64 				"/>
				<polyline class="st4" points="774.85,154.58 774.85,163.25 778.09,168.53 773.37,173.82 778.09,179.1 773.37,184.3 
					778.09,190.64 				"/>
			</g>
		</g>
	</g>
	<line class="st4" x1="679.75" y1="191.97" x2="679.75" y2="242.98"/>
</g>
<g>
	<rect x="880.81" y="60.01" class="st4" width="130.56" height="153.31"/>
	<polygon class="st4" points="988.62,19.56 903.54,19.56 880.81,45.84 1011.36,45.84 	"/>
	<rect x="873.33" y="45.84" class="st4" width="145.5" height="14.16"/>
	<rect x="873.33" y="213.32" class="st4" width="145.5" height="14.16"/>
	<rect x="932.24" y="7.66" class="st4" width="27.69" height="11.91"/>
	<g>
		<rect x="892.46" y="227.48" class="st4" width="14.95" height="20.86"/>
		<rect x="984.77" y="227.48" class="st4" width="14.95" height="20.86"/>
	</g>
	<circle class="st4" cx="946.47" cy="83.5" r="9.95"/>
	<circle class="st4" cx="946.47" cy="111.98" r="9.95"/>
	<circle class="st4" cx="946.47" cy="170.07" r="9.95"/>
	<g>
		
			<rect x="936.52" y="117.26" transform="matrix(4.498186e-11 -1 1 4.498186e-11 805.0867 1087.8549)" class="st4" width="19.9" height="48.25"/>
		<g>
			
				<rect x="927.9" y="137.92" transform="matrix(4.440277e-11 -1 1 4.440277e-11 789.9818 1073.5151)" class="st4" width="7.7" height="7.7"/>
			
				<rect x="942.62" y="137.92" transform="matrix(4.440277e-11 -1 1 4.440277e-11 804.7041 1088.2374)" class="st4" width="7.7" height="7.7"/>
			
				<rect x="957.34" y="137.92" transform="matrix(4.393026e-11 -1 1 4.393026e-11 819.4265 1102.9597)" class="st4" width="7.7" height="7.7"/>
		</g>
	</g>
	<polygon class="st4" points="1011.36,173.32 1011.36,190 1028.89,190 1028.89,199.78 1038.67,199.78 1038.67,190 1038.67,177.59 	
		"/>
	<line class="st4" x1="1011.36" y1="45.84" x2="988.62" y2="19.56"/>
	<polygon class="st4" points="1012.6,31.4 999.52,16.29 992.24,23.57 1005.32,38.68 	"/>
	<line class="st4" x1="893.92" y1="32.7" x2="959.2" y2="32.7"/>
	<line class="st4" x1="880.81" y1="200.89" x2="946.08" y2="200.89"/>
</g>
<g>
	<polygon class="st3" points="1195.42,4.33 1180,25.49 1180,177.09 1284,177.09 1284,25.49 1268.12,4.33 	"/>
	<rect x="1165.89" y="177.09" class="st3" width="132.21" height="15.87"/>
	<g>
		<rect x="1176.47" y="192.96" class="st3" width="14.1" height="58.71"/>
		<rect x="1273.43" y="192.96" class="st3" width="14.1" height="58.71"/>
	</g>
	<line class="st3" x1="1180.2" y1="25.49" x2="1283.8" y2="25.49"/>
	<polygon class="st3" points="1242.58,140.36 1242.58,140.36 1232,140.36 1221.42,140.36 1221.42,140.36 1210.83,127.43 
		1210.83,93.96 1210.83,73.71 1221.42,61.74 1221.42,61.74 1232,61.74 1242.58,61.74 1242.58,61.74 1253.17,73.71 1253.17,93.96 
		1253.17,127.43 	"/>
	<polygon class="st3" points="1242.19,240.56 1221.81,240.56 1190.52,193.36 1218.17,193.36 1245.83,193.36 1273.48,193.36 	"/>
</g>
<g>
	<g>
		<g>
			<g>
				<path class="st4" d="M1596.36,238.16c-2.09-1.14-2.59-2.48-2.64-2.63c-0.38-1.04-0.41-5.1-0.41-5.14c0-0.44,0.38-4.26,0.81-5.71
					c0.01-0.04,0.03-0.08,0.05-0.12c0.42-0.82,0.54-3.99,0.51-5.8c-0.01-0.56-1.07-55.88-1.19-59.31
					c-0.13-3.69,1.63-6.97,3.77-10.57c2.07-3.49,2.77-7.74,2.78-7.78l4.13-27.49c-0.25-0.07-0.46-0.22-0.61-0.44
					c-0.38-0.57-0.23-1.48-0.18-1.75l0.96-4.44l-0.57-0.14c-0.26-0.06-0.46-0.27-0.51-0.54c-0.13-0.63,0.05-2.66,0.63-3.77
					c0.8-1.29,1.8-1.39,1.91-1.4c0.11-0.02,4.17-0.63,6.53-0.62c0.03,0,0.06,0,0.09,0c2.39,0,6.33,0.6,6.5,0.62
					c0.05,0,1.05,0.1,1.82,1.34c0.6,1.16,0.78,3.19,0.66,3.82c-0.05,0.26-0.25,0.47-0.51,0.54l-0.57,0.14l0.96,4.44
					c0.06,0.27,0.21,1.18-0.18,1.75c-0.15,0.22-0.36,0.37-0.61,0.44l4.13,27.5c0.01,0.04,0.71,4.3,2.77,7.77
					c2.14,3.6,3.9,6.88,3.77,10.57c-0.12,3.43-1.18,58.76-1.19,59.32c-0.03,1.81,0.09,4.98,0.51,5.8c0.02,0.04,0.04,0.08,0.05,0.12
					c0.43,1.45,0.81,5.28,0.81,5.71c0,0.04-0.04,4.1-0.42,5.16c-0.04,0.13-0.54,1.48-2.59,2.6
					C1626.26,239.09,1598.38,239.09,1596.36,238.16z M1604.21,113.33c0,0.01,0,0.02,0,0.03L1604.21,113.33z M1620.43,113.31l0,0.03
					C1620.44,113.32,1620.44,113.31,1620.43,113.31z"/>
				<path class="st4" d="M1611.79,138.14c-2.21,0-3.63-0.99-4.16-1.45h-6.12c-0.2,0-0.39-0.09-0.52-0.24
					c-0.13-0.15-0.19-0.35-0.16-0.55l1.97-13.11c0.02-0.15,0.1-0.29,0.21-0.4c0.13-0.13,1.36-1.22,4.45-1.4
					c0.54-0.59,2.04-1.89,4.87-1.96c1.98-0.04,3.62,0.58,4.64,1.77c1.91-0.02,4.03,0.59,4.46,0.82c0.19,0.1,0.32,0.29,0.35,0.5
					c0.06,0.37,2.02,13.44,2.02,13.44c0.03,0.2-0.03,0.4-0.16,0.55c-0.13,0.15-0.32,0.24-0.51,0.25l-6.28,0.12
					c-0.54,0.44-2.02,1.45-4.48,1.64C1612.16,138.13,1611.97,138.14,1611.79,138.14z"/>
				<path class="st4" d="M1620.71,106.84c-0.1,0-0.21-0.02-0.3-0.07c-0.05-0.02-2.03-0.88-8.08-0.78c-5.04-0.04-8.18,0.82-8.22,0.83
					c-0.18,0.05-0.38,0.02-0.55-0.08c-0.16-0.1-0.28-0.26-0.32-0.45c-0.13-0.63,0.05-2.66,0.63-3.77c0.8-1.29,1.8-1.39,1.91-1.4
					c0.11-0.02,4.15-0.65,6.53-0.62c2.39,0,6.41,0.6,6.58,0.62c0.05,0,1.05,0.1,1.82,1.34c0.6,1.16,0.78,3.19,0.66,3.82
					c-0.04,0.21-0.18,0.39-0.37,0.49C1620.92,106.82,1620.82,106.84,1620.71,106.84z"/>
				<path class="st4" d="M1612.27,217.63c-0.01,0-0.02,0-0.02,0c-9.69-0.32-15.52-6.46-17.32-18.24l-0.03-0.21
					c-0.54-3.47-0.4-6.59-0.02-15.87l0.07-1.69c0.46-11.01,7.28-18.12,17.37-18.12c0,0,0,0,0,0c9.38,0,16.01,6.95,17.3,18.13
					c1.06,9.16,0.73,11.48,0.19,15.32c-0.09,0.64-0.19,1.32-0.28,2.08l-0.03,0.27c-1.45,11.58-7.23,17.74-17.18,18.32
					C1612.3,217.63,1612.29,217.63,1612.27,217.63z"/>
			</g>
		</g>
		<g>
			<g>
				<path class="st4" d="M1569.71,85.66h3.55c0.71,0,1.18-0.47,1.18-1.18V65.56c0-0.71-0.47-1.18-1.18-1.18h-51.78v-22.7
					c0-0.71-0.47-1.18-1.18-1.18h-3.49V24.66h4.2c0.71,0,1.18-0.47,1.18-1.18v-5.26c0-0.71-0.47-1.18-1.18-1.18h-17.02
					c-0.71,0-1.18,0.47-1.18,1.18v5.26c0,0.71,0.47,1.18,1.18,1.18h4.2v15.6h-3.25c-0.71,0-1.18,0.47-1.18,1.18v22.7h-52.01
					c-0.71,0-1.18,0.47-1.18,1.18v18.91c0,0.71,0.47,1.18,1.18,1.18h3.07c3.31,0,5.91,2.6,5.91,5.91c0,2.6-1.89,4.96-4.26,5.67
					h-0.24c-0.47,0-0.95,0-1.42,0.24l0,0c-0.24,0-0.47,0-0.71,0.24c-2.13,0.95-3.55,3.07-3.55,5.44v37.35
					c0,1.89,0.71,3.31,2.13,4.49c0,0-0.24,0-0.24,0.24l-0.24,0.24c0,0-0.24,0-0.24,0.24l-0.24,0.24c0,0,0,0.24-0.24,0.24
					c0,0,0,0.24-0.24,0.24c0,0,0,0.24-0.24,0.24c0,0,0,0.24-0.24,0.24c0,0,0,0.24-0.24,0.24v0.24v0.24v0.24v0.24v0.24v0.24
					c0,0.24,0,0.24,0,0.47c0,0,0,0,0,0.24c0,0.24,0,0.47,0,0.47v37.35c0,1.89,0.71,3.31,2.13,4.49c-1.18,0.95-2.13,2.6-2.13,4.49
					v37.35c0,3.07,2.6,5.67,5.67,5.67h113.01c3.07,0,5.67-2.6,5.67-5.67v-37.83c0-1.89-0.71-3.31-2.13-4.49
					c1.18-0.95,2.13-2.6,2.13-4.49v-37.12c0-1.89-0.71-3.31-2.13-4.49c1.18-0.95,2.13-2.6,2.13-4.49v-37.35
					c0-3.07-2.36-5.44-5.2-5.67c-0.24,0-0.24,0-0.47,0c-2.84-0.47-4.96-2.84-4.96-5.67C1564.03,88.26,1566.63,85.66,1569.71,85.66z"
					/>
				<path class="st4" d="M1493.11,91.57c0-1.65,0.71-3.07,1.66-4.02c1.18-1.18,2.6-1.65,4.02-1.65h26.95c3.31,0,5.91,2.6,5.91,5.91
					c0,1.65-0.71,3.07-1.65,4.02c-1.18,1.18-2.6,1.65-4.02,1.65h-27.19C1495.71,97.24,1493.11,94.64,1493.11,91.57z"/>
			</g>
			<line class="st4" x1="1452.68" y1="191.33" x2="1573.41" y2="191.33"/>
			<line class="st4" x1="1452.68" y1="144.59" x2="1572.41" y2="144.59"/>
			<line class="st4" x1="1457.4" y1="139.56" x2="1566.63" y2="139.56"/>
			<line class="st4" x1="1457.4" y1="185.83" x2="1566.63" y2="185.83"/>
			<line class="st4" x1="1457.4" y1="232.09" x2="1567.64" y2="232.09"/>
			<line class="st4" x1="1466.55" y1="91.57" x2="1486.08" y2="91.57"/>
			<line class="st4" x1="1537.89" y1="91.57" x2="1557.41" y2="91.57"/>
			<line class="st4" x1="1505.91" y1="20.65" x2="1519.27" y2="20.65"/>
			<line class="st4" x1="1512.25" y1="21.74" x2="1512.25" y2="41.15"/>
		</g>
		<g>
			<g transform="translate(3954.8215,587.84876)">
				<path class="st4" d="M-2527-409.37h-3.77c-0.71-3.76-2.69-7.02-5.45-9.34s-6.31-3.71-10.16-3.71
					c-3.84,0.01-7.39,1.39-10.15,3.71c-2.76,2.32-4.74,5.58-5.45,9.34h-3.77l0.01,28.43h3.76c0.71,3.76,2.69,7.02,5.45,9.34
					c2.76,2.32,6.31,3.71,10.15,3.71c3.85,0,7.39-1.39,10.16-3.71c2.76-2.32,4.74-5.58,5.45-9.34h3.77V-409.37z"/>
			</g>
			<g transform="translate(3954.8215,587.84876)">
				<path class="st4" d="M-2541.49-348.88h10.98c0.1,0,0.19-0.03,0.27-0.07c0.08-0.05,0.15-0.12,0.19-0.2l0.52-1.01l0.52-1.01
					l3.09-2.08l3.09-2.08c0.04-0.02,0.07-0.05,0.1-0.08c0.03-0.03,0.06-0.06,0.08-0.1c0,0,0,0,0,0c0,0,0,0,0,0s0,0,0,0s0,0,0,0
					c0.01-0.02,0.02-0.04,0.03-0.07c0.01-0.02,0.02-0.05,0.02-0.07c0,0,0-0.01,0-0.01c0,0,0-0.01,0-0.01c0,0,0-0.01,0-0.01
					c0,0,0-0.01,0-0.01c0,0,0-0.01,0-0.01c0,0,0-0.01,0-0.01c0-0.01,0-0.01,0-0.02c0-0.01,0-0.01,0-0.02c0,0,0-0.01,0-0.01
					c0,0,0-0.01,0-0.01c0,0,0,0,0,0s0,0,0,0v-39.37v-39.37c0-0.07-0.01-0.13-0.04-0.19c-0.02-0.06-0.06-0.12-0.1-0.16l-3.08-3.9
					l-3.08-3.9v-1.68v-1.68c0.31-0.19,0.56-0.44,0.74-0.75s0.28-0.66,0.28-1.03c0-0.59-0.25-1.11-0.65-1.49
					c-0.4-0.38-0.94-0.61-1.54-0.61h-11.44h-21.2c-0.59,0-1.14,0.23-1.54,0.61s-0.65,0.91-0.65,1.49c0,0.38,0.1,0.73,0.28,1.03
					s0.44,0.56,0.74,0.75v1.68v1.68l-3.08,3.9l-3.08,3.9c-0.05,0.05-0.08,0.1-0.1,0.16c-0.02,0.06-0.04,0.12-0.04,0.19v39.37v39.37
					c0,0,0,0,0,0s0,0,0,0c0,0,0,0.01,0,0.01c0,0,0,0.01,0,0.01c0,0.01,0,0.01,0,0.02s0,0.01,0,0.02c0,0,0,0.01,0,0.01
					c0,0,0,0.01,0,0.01c0,0,0,0.01,0,0.01c0,0,0,0.01,0,0.01c0,0,0,0.01,0,0.01c0,0,0,0.01,0,0.01c0.01,0.02,0.01,0.05,0.02,0.07
					c0.01,0.02,0.02,0.05,0.03,0.07c0,0,0,0,0,0c0,0,0,0,0,0c0,0,0,0,0,0c0,0,0,0,0,0c0.02,0.04,0.05,0.07,0.08,0.1
					c0.03,0.03,0.06,0.06,0.1,0.08l3.09,2.08l3.09,2.08l0.52,1.01l0.52,1.01c0.04,0.09,0.11,0.15,0.19,0.2
					c0.08,0.05,0.17,0.07,0.27,0.07H-2541.49L-2541.49-348.88z"/>
			</g>
			<line class="st4" x1="1390.97" y1="142.71" x2="1425.93" y2="142.71"/>
			<line class="st4" x1="1384.74" y1="152.97" x2="1432.16" y2="152.97"/>
			<line class="st4" x1="1384.74" y1="232.42" x2="1432.16" y2="232.42"/>
		</g>
	</g>
</g>
</svg>
