<?xml version="1.0" encoding="utf-8"?>
<!-- Generator: Adobe Illustrator 25.0.0, SVG Export Plug-In . SVG Version: 6.00 Build 0)  -->
<svg version="1.1" id="Layer_1" xmlns="http://www.w3.org/2000/svg" xmlns:xlink="http://www.w3.org/1999/xlink" x="0px" y="0px"
	 viewBox="0 0 256 256" style="enable-background:new 0 0 256 256;" xml:space="preserve">
<style type="text/css">
	.st0{fill:none;stroke:#FFFFFF;stroke-width:2;stroke-miterlimit:10;}
</style>
<g>
	<g>
		<polygon class="st0" points="199.7,104.08 227.99,116.43 224.8,123.92 196.51,111.57 		"/>
		<polygon class="st0" points="157.31,94.44 141.32,72.67 141.32,23.69 116.46,23.69 116.46,72.67 98.69,94.44 11.67,132.54 
			11.67,232.31 244.33,232.31 244.33,132.54 		"/>
		<g>
			<line class="st0" x1="12.94" y1="132.54" x2="129.7" y2="132.54"/>
			<line class="st0" x1="12.32" y1="145.23" x2="243.42" y2="145.23"/>
		</g>
		<line class="st0" x1="13.27" y1="217.8" x2="242.73" y2="217.8"/>
		<line class="st0" x1="98.69" y1="94.44" x2="157.31" y2="94.44"/>
		<line class="st0" x1="116.99" y1="72.67" x2="141.86" y2="72.67"/>
	</g>
	<g>
		<g>
			<path class="st0" d="M179.09,190.05c-22.87,0-42.5,1.73-51.09,4.21c-8.59-2.47-28.22-4.21-51.09-4.21
				c-30.78,0-55.74,3.13-55.74,7c0,3.87,24.95,7,55.74,7c22.87,0,42.5-1.73,51.09-4.21c8.59,2.47,28.22,4.21,51.09,4.21
				c30.78,0,55.74-3.13,55.74-7C234.83,193.18,209.87,190.05,179.09,190.05z"/>
		</g>
		<rect x="123.31" y="186.47" class="st0" width="10.22" height="31.33"/>
	</g>
</g>
</svg>
