<?xml version="1.0" encoding="utf-8"?>
<!-- Generator: Adobe Illustrator 25.0.0, SVG Export Plug-In . SVG Version: 6.00 Build 0)  -->
<svg version="1.1" id="Layer_1" xmlns="http://www.w3.org/2000/svg" xmlns:xlink="http://www.w3.org/1999/xlink" x="0px" y="0px"
	 viewBox="0 0 256 256" style="enable-background:new 0 0 256 256;" xml:space="preserve">
<style type="text/css">
	.st0{fill:none;stroke:#FFFFFF;stroke-width:2;stroke-miterlimit:10;}
</style>
<g>
	<g>
		<g>
			<g>
				<path class="st0" d="M216.36,238.16c-2.09-1.14-2.59-2.48-2.64-2.63c-0.38-1.04-0.41-5.1-0.41-5.14c0-0.44,0.38-4.26,0.81-5.71
					c0.01-0.04,0.03-0.08,0.05-0.12c0.42-0.82,0.54-3.99,0.51-5.8c-0.01-0.56-1.07-55.88-1.19-59.31
					c-0.13-3.69,1.63-6.97,3.77-10.57c2.07-3.49,2.77-7.74,2.78-7.78l4.13-27.49c-0.25-0.07-0.46-0.22-0.61-0.44
					c-0.38-0.57-0.23-1.48-0.18-1.75l0.96-4.44l-0.57-0.14c-0.26-0.06-0.46-0.27-0.51-0.54c-0.13-0.63,0.05-2.66,0.63-3.77
					c0.8-1.29,1.8-1.39,1.91-1.4c0.11-0.02,4.17-0.63,6.53-0.62c0.03,0,0.06,0,0.09,0c2.39,0,6.33,0.6,6.5,0.62
					c0.05,0,1.05,0.1,1.82,1.34c0.6,1.16,0.78,3.19,0.66,3.82c-0.05,0.26-0.25,0.47-0.51,0.54l-0.57,0.14l0.96,4.44
					c0.06,0.27,0.21,1.18-0.18,1.75c-0.15,0.22-0.36,0.37-0.61,0.44l4.13,27.5c0.01,0.04,0.71,4.3,2.77,7.77
					c2.14,3.6,3.9,6.88,3.77,10.57c-0.12,3.43-1.18,58.76-1.19,59.32c-0.03,1.81,0.09,4.98,0.51,5.8c0.02,0.04,0.04,0.08,0.05,0.12
					c0.43,1.45,0.81,5.28,0.81,5.71c0,0.04-0.04,4.1-0.42,5.16c-0.04,0.13-0.54,1.48-2.59,2.6
					C246.26,239.09,218.38,239.09,216.36,238.16z M224.21,113.33c0,0.01,0,0.02,0,0.03L224.21,113.33z M240.43,113.31l0,0.03
					C240.44,113.32,240.44,113.31,240.43,113.31z"/>
				<path class="st0" d="M231.79,138.14c-2.21,0-3.63-0.99-4.16-1.45h-6.12c-0.2,0-0.39-0.09-0.52-0.24
					c-0.13-0.15-0.19-0.35-0.16-0.55l1.97-13.11c0.02-0.15,0.1-0.29,0.21-0.4c0.13-0.13,1.36-1.22,4.45-1.4
					c0.54-0.59,2.04-1.89,4.87-1.96c1.98-0.04,3.62,0.58,4.64,1.77c1.91-0.02,4.03,0.59,4.46,0.82c0.19,0.1,0.32,0.29,0.35,0.5
					c0.06,0.37,2.02,13.44,2.02,13.44c0.03,0.2-0.03,0.4-0.16,0.55c-0.13,0.15-0.32,0.24-0.51,0.25l-6.28,0.12
					c-0.54,0.44-2.02,1.45-4.48,1.64C232.16,138.13,231.97,138.14,231.79,138.14z"/>
				<path class="st0" d="M240.71,106.84c-0.1,0-0.21-0.02-0.3-0.07c-0.05-0.02-2.03-0.88-8.08-0.78c-5.04-0.04-8.18,0.82-8.22,0.83
					c-0.18,0.05-0.38,0.02-0.55-0.08c-0.16-0.1-0.28-0.26-0.32-0.45c-0.13-0.63,0.05-2.66,0.63-3.77c0.8-1.29,1.8-1.39,1.91-1.4
					c0.11-0.02,4.15-0.65,6.53-0.62c2.39,0,6.41,0.6,6.58,0.62c0.05,0,1.05,0.1,1.82,1.34c0.6,1.16,0.78,3.19,0.66,3.82
					c-0.04,0.21-0.18,0.39-0.37,0.49C240.92,106.82,240.82,106.84,240.71,106.84z"/>
				<path class="st0" d="M232.27,217.63c-0.01,0-0.02,0-0.02,0c-9.69-0.32-15.52-6.46-17.32-18.24l-0.03-0.21
					c-0.54-3.47-0.41-6.59-0.02-15.87l0.07-1.69c0.46-11.01,7.28-18.12,17.37-18.12c0,0,0,0,0,0c9.38,0,16.01,6.95,17.3,18.13
					c1.06,9.16,0.73,11.48,0.19,15.32c-0.09,0.64-0.19,1.32-0.28,2.08l-0.03,0.27c-1.45,11.58-7.23,17.74-17.18,18.32
					C232.3,217.63,232.29,217.63,232.27,217.63z"/>
			</g>
		</g>
		<g>
			<g>
				<path class="st0" d="M189.71,85.66h3.55c0.71,0,1.18-0.47,1.18-1.18V65.56c0-0.71-0.47-1.18-1.18-1.18h-51.78v-22.7
					c0-0.71-0.47-1.18-1.18-1.18h-3.49V24.66h4.2c0.71,0,1.18-0.47,1.18-1.18v-5.26c0-0.71-0.47-1.18-1.18-1.18h-17.02
					c-0.71,0-1.18,0.47-1.18,1.18v5.26c0,0.71,0.47,1.18,1.18,1.18h4.2v15.6h-3.25c-0.71,0-1.18,0.47-1.18,1.18v22.7H71.74
					c-0.71,0-1.18,0.47-1.18,1.18v18.91c0,0.71,0.47,1.18,1.18,1.18h3.07c3.31,0,5.91,2.6,5.91,5.91c0,2.6-1.89,4.96-4.26,5.67
					h-0.24c-0.47,0-0.95,0-1.42,0.24l0,0c-0.24,0-0.47,0-0.71,0.24c-2.13,0.95-3.55,3.07-3.55,5.44v37.35
					c0,1.89,0.71,3.31,2.13,4.49c0,0-0.24,0-0.24,0.24l-0.24,0.24c0,0-0.24,0-0.24,0.24l-0.24,0.24c0,0,0,0.24-0.24,0.24
					c0,0,0,0.24-0.24,0.24c0,0,0,0.24-0.24,0.24c0,0,0,0.24-0.24,0.24c0,0,0,0.24-0.24,0.24v0.24v0.24v0.24v0.24v0.24v0.24
					c0,0.24,0,0.24,0,0.47c0,0,0,0,0,0.24c0,0.24,0,0.47,0,0.47v37.35c0,1.89,0.71,3.31,2.13,4.49c-1.18,0.95-2.13,2.6-2.13,4.49
					v37.35c0,3.07,2.6,5.67,5.67,5.67h113.01c3.07,0,5.67-2.6,5.67-5.67v-37.83c0-1.89-0.71-3.31-2.13-4.49
					c1.18-0.95,2.13-2.6,2.13-4.49v-37.12c0-1.89-0.71-3.31-2.13-4.49c1.18-0.95,2.13-2.6,2.13-4.49v-37.35
					c0-3.07-2.36-5.44-5.2-5.67c-0.24,0-0.24,0-0.47,0c-2.84-0.47-4.96-2.84-4.96-5.67C184.03,88.26,186.63,85.66,189.71,85.66z"/>
				<path class="st0" d="M113.11,91.57c0-1.65,0.71-3.07,1.65-4.02c1.18-1.18,2.6-1.65,4.02-1.65h26.95c3.31,0,5.91,2.6,5.91,5.91
					c0,1.65-0.71,3.07-1.65,4.02c-1.18,1.18-2.6,1.65-4.02,1.65h-27.19C115.71,97.24,113.11,94.64,113.11,91.57z"/>
			</g>
			<line class="st0" x1="72.68" y1="191.33" x2="193.41" y2="191.33"/>
			<line class="st0" x1="72.68" y1="144.59" x2="192.41" y2="144.59"/>
			<line class="st0" x1="77.4" y1="139.56" x2="186.63" y2="139.56"/>
			<line class="st0" x1="77.4" y1="185.83" x2="186.63" y2="185.83"/>
			<line class="st0" x1="77.4" y1="232.09" x2="187.64" y2="232.09"/>
			<line class="st0" x1="86.55" y1="91.57" x2="106.08" y2="91.57"/>
			<line class="st0" x1="157.89" y1="91.57" x2="177.41" y2="91.57"/>
			<line class="st0" x1="125.91" y1="20.65" x2="139.27" y2="20.65"/>
			<line class="st0" x1="132.25" y1="21.74" x2="132.25" y2="41.15"/>
		</g>
		<g>
			<g transform="translate(3954.8215,587.84876)">
				<path class="st0" d="M-3907-409.37h-3.77c-0.71-3.76-2.69-7.02-5.45-9.34s-6.31-3.71-10.16-3.71
					c-3.84,0.01-7.39,1.39-10.15,3.71c-2.76,2.32-4.74,5.58-5.45,9.34h-3.77l0.01,28.43h3.76c0.71,3.76,2.69,7.02,5.45,9.34
					c2.76,2.32,6.31,3.71,10.15,3.71c3.85,0,7.39-1.39,10.16-3.71c2.76-2.32,4.74-5.58,5.45-9.34h3.77V-409.37z"/>
			</g>
			<g transform="translate(3954.8215,587.84876)">
				<path class="st0" d="M-3921.49-348.88h10.98c0.1,0,0.19-0.03,0.27-0.07c0.08-0.05,0.15-0.12,0.19-0.2l0.52-1.01l0.52-1.01
					l3.09-2.08l3.09-2.08c0.04-0.02,0.07-0.05,0.1-0.08c0.03-0.03,0.06-0.06,0.08-0.1c0,0,0,0,0,0c0,0,0,0,0,0s0,0,0,0s0,0,0,0
					c0.01-0.02,0.02-0.04,0.03-0.07c0.01-0.02,0.02-0.05,0.02-0.07c0,0,0-0.01,0-0.01c0,0,0-0.01,0-0.01c0,0,0-0.01,0-0.01
					c0,0,0-0.01,0-0.01c0,0,0-0.01,0-0.01c0,0,0-0.01,0-0.01c0-0.01,0-0.01,0-0.02c0-0.01,0-0.01,0-0.02c0,0,0-0.01,0-0.01
					c0,0,0-0.01,0-0.01c0,0,0,0,0,0s0,0,0,0v-39.37v-39.37c0-0.07-0.01-0.13-0.04-0.19c-0.02-0.06-0.06-0.12-0.1-0.16l-3.08-3.9
					l-3.08-3.9v-1.68v-1.68c0.31-0.19,0.56-0.44,0.74-0.75s0.28-0.66,0.28-1.03c0-0.59-0.25-1.11-0.65-1.49
					c-0.4-0.38-0.94-0.61-1.54-0.61h-11.44h-21.2c-0.59,0-1.14,0.23-1.54,0.61s-0.65,0.91-0.65,1.49c0,0.38,0.1,0.73,0.28,1.03
					s0.44,0.56,0.74,0.75v1.68v1.68l-3.08,3.9l-3.08,3.9c-0.05,0.05-0.08,0.1-0.1,0.16c-0.02,0.06-0.04,0.12-0.04,0.19v39.37v39.37
					c0,0,0,0,0,0s0,0,0,0c0,0,0,0.01,0,0.01c0,0,0,0.01,0,0.01c0,0.01,0,0.01,0,0.02s0,0.01,0,0.02c0,0,0,0.01,0,0.01
					c0,0,0,0.01,0,0.01c0,0,0,0.01,0,0.01c0,0,0,0.01,0,0.01c0,0,0,0.01,0,0.01c0,0,0,0.01,0,0.01c0.01,0.02,0.01,0.05,0.02,0.07
					c0.01,0.02,0.02,0.05,0.03,0.07c0,0,0,0,0,0c0,0,0,0,0,0c0,0,0,0,0,0c0,0,0,0,0,0c0.02,0.04,0.05,0.07,0.08,0.1
					c0.03,0.03,0.06,0.06,0.1,0.08l3.09,2.08l3.09,2.08l0.52,1.01l0.52,1.01c0.04,0.09,0.11,0.15,0.19,0.2
					c0.08,0.05,0.17,0.07,0.27,0.07H-3921.49L-3921.49-348.88z"/>
			</g>
			<line class="st0" x1="10.97" y1="142.71" x2="45.93" y2="142.71"/>
			<line class="st0" x1="4.74" y1="152.97" x2="52.16" y2="152.97"/>
			<line class="st0" x1="4.74" y1="232.42" x2="52.16" y2="232.42"/>
		</g>
	</g>
</g>
</svg>
