<?xml version="1.0" encoding="utf-8"?>
<!-- Generator: Adobe Illustrator 25.0.0, SVG Export Plug-In . SVG Version: 6.00 Build 0)  -->
<svg version="1.1" id="Layer_1" xmlns="http://www.w3.org/2000/svg" xmlns:xlink="http://www.w3.org/1999/xlink" x="0px" y="0px"
	 viewBox="0 0 256 256" style="enable-background:new 0 0 256 256;" xml:space="preserve">
<style type="text/css">
	.st0{fill:none;stroke:#FFFFFF;stroke-width:2;stroke-miterlimit:10;}
</style>
<g>
	<g>
		<polygon class="st0" points="198.06,84.45 225.44,96.2 222.35,103.32 194.97,91.57 		"/>
		<polygon class="st0" points="198.49,93.39 156.37,75.28 148.63,64.93 140.89,54.58 140.89,31.29 140.89,8 128.86,8 116.82,8 
			116.82,31.29 116.82,54.58 108.23,64.93 99.63,75.28 57.51,93.39 15.39,111.51 15.39,158.95 15.39,206.39 123.47,219.2 
			123.47,246.83 132.53,246.83 132.53,219.2 240.61,206.39 240.61,158.95 240.61,111.51 		"/>
		<line class="st0" x1="100.29" y1="75.28" x2="157.02" y2="75.28"/>
		<line class="st0" x1="118" y1="54.58" x2="142.07" y2="54.58"/>
		<g>
			<line class="st0" x1="16.98" y1="123.58" x2="239.71" y2="123.58"/>
			<line class="st0" x1="17.6" y1="197.79" x2="239.71" y2="197.79"/>
			<line class="st0" x1="17.6" y1="179.29" x2="239.71" y2="179.29"/>
		</g>
		<line class="st0" x1="18.73" y1="111.51" x2="129.38" y2="111.51"/>
	</g>
	<rect x="123.05" y="138.91" class="st0" width="9.9" height="58.45"/>
	<g>
		<rect x="25.75" y="146.46" class="st0" width="204.49" height="7.46"/>
		<g>
			<g>
				<polyline class="st0" points="31.39,154.58 31.39,163.25 34.63,168.53 29.9,173.82 34.63,179.1 29.9,184.3 34.63,190.64 				"/>
				<polyline class="st0" points="46.73,154.58 46.73,163.25 49.97,168.53 45.24,173.82 49.97,179.1 45.24,184.3 49.97,190.64 				
					"/>
				<polyline class="st0" points="62.07,154.58 62.07,163.25 65.31,168.53 60.58,173.82 65.31,179.1 60.58,184.3 65.31,190.64 				
					"/>
				<polyline class="st0" points="77.41,154.58 77.41,163.25 80.65,168.53 75.92,173.82 80.65,179.1 75.92,184.3 80.65,190.64 				
					"/>
				<polyline class="st0" points="92.75,154.58 92.75,163.25 95.99,168.53 91.26,173.82 95.99,179.1 91.26,184.3 95.99,190.64 				
					"/>
				<polyline class="st0" points="108.09,154.58 108.09,163.25 111.33,168.53 106.6,173.82 111.33,179.1 106.6,184.3 111.33,190.64 
									"/>
			</g>
			<g>
				<polyline class="st0" points="146.15,154.58 146.15,163.25 149.39,168.53 144.67,173.82 149.39,179.1 144.67,184.3 
					149.39,190.64 				"/>
				<polyline class="st0" points="161.49,154.58 161.49,163.25 164.73,168.53 160.01,173.82 164.73,179.1 160.01,184.3 
					164.73,190.64 				"/>
				<polyline class="st0" points="176.83,154.58 176.83,163.25 180.07,168.53 175.35,173.82 180.07,179.1 175.35,184.3 
					180.07,190.64 				"/>
				<polyline class="st0" points="192.17,154.58 192.17,163.25 195.41,168.53 190.69,173.82 195.41,179.1 190.69,184.3 
					195.41,190.64 				"/>
				<polyline class="st0" points="207.51,154.58 207.51,163.25 210.75,168.53 206.03,173.82 210.75,179.1 206.03,184.3 
					210.75,190.64 				"/>
				<polyline class="st0" points="222.85,154.58 222.85,163.25 226.09,168.53 221.37,173.82 226.09,179.1 221.37,184.3 
					226.09,190.64 				"/>
			</g>
		</g>
	</g>
	<line class="st0" x1="127.75" y1="191.97" x2="127.75" y2="242.98"/>
</g>
</svg>
