<?xml version="1.0" encoding="utf-8"?>
<!-- Generator: Adobe Illustrator 25.0.0, SVG Export Plug-In . SVG Version: 6.00 Build 0)  -->
<svg version="1.1" id="Layer_1" xmlns="http://www.w3.org/2000/svg" xmlns:xlink="http://www.w3.org/1999/xlink" x="0px" y="0px"
	 viewBox="0 0 256 256" style="enable-background:new 0 0 256 256;" xml:space="preserve">
<style type="text/css">
	.st0{fill:none;stroke:#FFFFFF;stroke-width:2;stroke-miterlimit:10;}
</style>
<g>
	<polygon class="st0" points="91.42,4.33 76,25.49 76,177.09 180,177.09 180,25.49 164.12,4.33 	"/>
	<rect x="61.89" y="177.09" class="st0" width="132.21" height="15.87"/>
	<g>
		<rect x="72.47" y="192.96" class="st0" width="14.1" height="58.71"/>
		<rect x="169.43" y="192.96" class="st0" width="14.1" height="58.71"/>
	</g>
	<line class="st0" x1="76.2" y1="25.49" x2="179.8" y2="25.49"/>
	<polygon class="st0" points="138.58,140.36 138.58,140.36 128,140.36 117.42,140.36 117.42,140.36 106.83,127.43 106.83,93.96 
		106.83,73.71 117.42,61.74 117.42,61.74 128,61.74 138.58,61.74 138.58,61.74 149.17,73.71 149.17,93.96 149.17,127.43 	"/>
	<polygon class="st0" points="138.19,240.56 117.81,240.56 86.52,193.36 114.17,193.36 141.83,193.36 169.48,193.36 	"/>
</g>
</svg>
