<svg height="19" width="102" id="Layer_1" data-name="Layer 1" xmlns="http://www.w3.org/2000/svg" viewBox="0 0 102.47 19.07"><defs><style>.cls-1{fill:#ffffff;}</style></defs><title>foss-logo</title><path class="cls-1" d="M0,.39H20v4H8v3H18v4H8v7H0Z"/><path class="cls-1" d="M36.83.18C46.14.18,51,3.74,51,9.57S46.06,19,36.83,19,22.67,15.34,22.67,9.57,27.53.18,36.83.18Zm0,15.19c4.58,0,6.4-2.81,6.4-5.8,0-3.15-1.82-5.8-6.4-5.8s-6.39,2.65-6.39,5.8C30.44,12.56,32.26,15.37,36.83,15.37Z"/><path class="cls-1" d="M63.82,15.42a33.71,33.71,0,0,1-7.82-1V18.2a35,35,0,0,0,7.78.87c6.38.06,12.65-1.18,12.69-6C76.53,6.43,63,8,63,5.33c0-1.61,3.23-1.69,5.16-1.67a29.43,29.43,0,0,1,6.88.9V.75A37.24,37.24,0,0,0,67.62,0C61.86,0,55.1,1.11,55.06,5.55,55,12.27,68.57,10.3,68.57,13.66c0,1.48-2.33,1.78-4.75,1.76Z"/><path class="cls-1" d="M89.82,15.42a33.71,33.71,0,0,1-7.82-1V18.2a35,35,0,0,0,7.78.87c6.38.06,12.65-1.18,12.69-6C102.53,6.43,89,8,89,5.33c0-1.61,3.23-1.69,5.16-1.67a29.43,29.43,0,0,1,6.88.9V.75A37.24,37.24,0,0,0,93.62,0C87.86,0,81.1,1.11,81.06,5.55,81,12.27,94.57,10.3,94.57,13.66c0,1.48-2.33,1.78-4.75,1.76Z"/></svg>
