<?xml version="1.0" encoding="utf-8"?>
<!-- Generator: Adobe Illustrator 25.0.0, SVG Export Plug-In . SVG Version: 6.00 Build 0)  -->
<svg version="1.1" id="Layer_1" xmlns="http://www.w3.org/2000/svg" xmlns:xlink="http://www.w3.org/1999/xlink" x="0px" y="0px"
	 viewBox="0 0 256 256" style="enable-background:new 0 0 256 256;" xml:space="preserve">
<style type="text/css">
	.st0{fill:#FFFFFF;stroke:#569FD2;stroke-miterlimit:10;}
	.st1{fill:none;stroke:#569FD2;stroke-miterlimit:10;}
	.st2{fill:#FFFFFF;stroke:#FFFFFF;stroke-miterlimit:10;}
	.st3{fill:none;stroke:#FFFFFF;stroke-width:6;stroke-miterlimit:10;}
</style>
<g>
	<g>
		<rect x="-1640.67" y="153.18" class="st0" width="225.33" height="94.6"/>
		<rect x="-1566.79" y="96.29" class="st0" width="77.58" height="56.89"/>
		<polygon class="st0" points="-1613.34,8.22 -1613.34,36.53 -1613.34,38.1 -1566.79,96.29 -1489.21,96.29 -1442.66,38.1 
			-1442.66,36.53 -1442.66,8.22 		"/>
		<line class="st0" x1="-1614.32" y1="36.53" x2="-1489.03" y2="36.53"/>
	</g>
	<g>
		<circle class="st0" cx="-1580.08" cy="201.84" r="16.5"/>
		<circle class="st0" cx="-1580.08" cy="201.84" r="3.99"/>
	</g>
	<g>
		<circle class="st0" cx="-1477.75" cy="201.84" r="22.61"/>
		<circle class="st0" cx="-1477.75" cy="201.84" r="3.99"/>
	</g>
	<line class="st1" x1="-1580.08" y1="185.34" x2="-1477.75" y2="179.23"/>
	<line class="st1" x1="-1580.08" y1="218.34" x2="-1477.75" y2="224.46"/>
</g>
<g>
	<g>
		<polygon class="st0" points="-1180.3,104.08 -1152.01,116.43 -1155.2,123.92 -1183.49,111.57 		"/>
		<polygon class="st0" points="-1222.69,94.44 -1238.68,72.67 -1238.68,23.69 -1263.54,23.69 -1263.54,72.67 -1281.31,94.44 
			-1368.33,132.54 -1368.33,232.31 -1135.67,232.31 -1135.67,132.54 		"/>
		<g>
			<line class="st0" x1="-1367.06" y1="132.54" x2="-1250.3" y2="132.54"/>
			<line class="st0" x1="-1367.68" y1="145.23" x2="-1136.58" y2="145.23"/>
		</g>
		<line class="st0" x1="-1366.73" y1="217.8" x2="-1137.27" y2="217.8"/>
		<line class="st0" x1="-1281.31" y1="94.44" x2="-1222.69" y2="94.44"/>
		<line class="st0" x1="-1263.01" y1="72.67" x2="-1238.14" y2="72.67"/>
	</g>
	<g>
		<g>
			<path class="st0" d="M-1200.91,190.05c-22.87,0-42.5,1.73-51.09,4.21c-8.59-2.47-28.22-4.21-51.09-4.21
				c-30.78,0-55.74,3.13-55.74,7c0,3.87,24.95,7,55.74,7c22.87,0,42.5-1.73,51.09-4.21c8.59,2.47,28.22,4.21,51.09,4.21
				c30.78,0,55.74-3.13,55.74-7C-1145.17,193.18-1170.13,190.05-1200.91,190.05z"/>
		</g>
		<rect x="-1256.69" y="186.47" class="st0" width="10.22" height="31.33"/>
	</g>
</g>
<g>
	<g>
		<polygon class="st0" points="-905.94,84.45 -878.56,96.2 -881.65,103.32 -909.03,91.57 		"/>
		<polygon class="st0" points="-905.51,93.39 -947.63,75.28 -955.37,64.93 -963.11,54.58 -963.11,31.29 -963.11,8 -975.14,8 
			-987.18,8 -987.18,31.29 -987.18,54.58 -995.77,64.93 -1004.37,75.28 -1046.49,93.39 -1088.61,111.51 -1088.61,158.95 
			-1088.61,206.39 -980.53,219.2 -980.53,246.83 -971.47,246.83 -971.47,219.2 -863.39,206.39 -863.39,158.95 -863.39,111.51 		"/>
		<line class="st0" x1="-1003.71" y1="75.28" x2="-946.98" y2="75.28"/>
		<line class="st0" x1="-986" y1="54.58" x2="-961.93" y2="54.58"/>
		<g>
			<line class="st0" x1="-1087.02" y1="123.58" x2="-864.29" y2="123.58"/>
			<line class="st0" x1="-1086.4" y1="197.79" x2="-864.29" y2="197.79"/>
			<line class="st0" x1="-1086.4" y1="179.29" x2="-864.29" y2="179.29"/>
		</g>
		<line class="st0" x1="-1085.27" y1="111.51" x2="-974.62" y2="111.51"/>
	</g>
	<rect x="-980.95" y="138.91" class="st0" width="9.9" height="58.45"/>
	<g>
		<rect x="-1078.25" y="146.46" class="st0" width="204.49" height="7.46"/>
		<g>
			<g>
				<polyline class="st1" points="-1072.61,154.58 -1072.61,163.25 -1069.37,168.53 -1074.1,173.82 -1069.37,179.1 -1074.1,184.3 
					-1069.37,190.64 				"/>
				<polyline class="st1" points="-1057.27,154.58 -1057.27,163.25 -1054.03,168.53 -1058.76,173.82 -1054.03,179.1 -1058.76,184.3 
					-1054.03,190.64 				"/>
				<polyline class="st1" points="-1041.93,154.58 -1041.93,163.25 -1038.69,168.53 -1043.42,173.82 -1038.69,179.1 -1043.42,184.3 
					-1038.69,190.64 				"/>
				<polyline class="st1" points="-1026.59,154.58 -1026.59,163.25 -1023.35,168.53 -1028.08,173.82 -1023.35,179.1 -1028.08,184.3 
					-1023.35,190.64 				"/>
				<polyline class="st1" points="-1011.25,154.58 -1011.25,163.25 -1008.01,168.53 -1012.74,173.82 -1008.01,179.1 -1012.74,184.3 
					-1008.01,190.64 				"/>
				<polyline class="st1" points="-995.91,154.58 -995.91,163.25 -992.67,168.53 -997.4,173.82 -992.67,179.1 -997.4,184.3 
					-992.67,190.64 				"/>
			</g>
			<g>
				<polyline class="st1" points="-957.85,154.58 -957.85,163.25 -954.61,168.53 -959.33,173.82 -954.61,179.1 -959.33,184.3 
					-954.61,190.64 				"/>
				<polyline class="st1" points="-942.51,154.58 -942.51,163.25 -939.27,168.53 -943.99,173.82 -939.27,179.1 -943.99,184.3 
					-939.27,190.64 				"/>
				<polyline class="st1" points="-927.17,154.58 -927.17,163.25 -923.93,168.53 -928.65,173.82 -923.93,179.1 -928.65,184.3 
					-923.93,190.64 				"/>
				<polyline class="st1" points="-911.83,154.58 -911.83,163.25 -908.59,168.53 -913.31,173.82 -908.59,179.1 -913.31,184.3 
					-908.59,190.64 				"/>
				<polyline class="st1" points="-896.49,154.58 -896.49,163.25 -893.25,168.53 -897.97,173.82 -893.25,179.1 -897.97,184.3 
					-893.25,190.64 				"/>
				<polyline class="st1" points="-881.15,154.58 -881.15,163.25 -877.91,168.53 -882.63,173.82 -877.91,179.1 -882.63,184.3 
					-877.91,190.64 				"/>
			</g>
		</g>
	</g>
	<line class="st1" x1="-976.25" y1="191.97" x2="-976.25" y2="242.98"/>
</g>
<g>
	<rect x="-775.19" y="60.01" class="st1" width="130.56" height="153.31"/>
	<polygon class="st1" points="-667.38,19.56 -752.46,19.56 -775.19,45.84 -644.64,45.84 	"/>
	<rect x="-782.67" y="45.84" class="st1" width="145.5" height="14.16"/>
	<rect x="-782.67" y="213.32" class="st1" width="145.5" height="14.16"/>
	<rect x="-723.76" y="7.66" class="st1" width="27.69" height="11.91"/>
	<g>
		<rect x="-763.54" y="227.48" class="st1" width="14.95" height="20.86"/>
		<rect x="-671.23" y="227.48" class="st1" width="14.95" height="20.86"/>
	</g>
	<circle class="st1" cx="-709.53" cy="83.5" r="9.95"/>
	<circle class="st1" cx="-709.53" cy="111.98" r="9.95"/>
	<circle class="st1" cx="-709.53" cy="170.07" r="9.95"/>
	<g>
		
			<rect x="-719.48" y="117.26" transform="matrix(4.498186e-11 -1 1 4.498186e-11 -850.9133 -568.1451)" class="st1" width="19.9" height="48.25"/>
		<g>
			
				<rect x="-728.1" y="137.92" transform="matrix(4.440277e-11 -1 1 4.440277e-11 -866.0182 -582.4849)" class="st1" width="7.7" height="7.7"/>
			
				<rect x="-713.38" y="137.92" transform="matrix(4.440277e-11 -1 1 4.440277e-11 -851.2959 -567.7626)" class="st1" width="7.7" height="7.7"/>
			
				<rect x="-698.66" y="137.92" transform="matrix(4.393026e-11 -1 1 4.393026e-11 -836.5735 -553.0402)" class="st1" width="7.7" height="7.7"/>
		</g>
	</g>
	<polygon class="st1" points="-644.64,173.32 -644.64,190 -627.11,190 -627.11,199.78 -617.33,199.78 -617.33,190 -617.33,177.59 	
		"/>
	<line class="st1" x1="-644.64" y1="45.84" x2="-667.38" y2="19.56"/>
	<polygon class="st1" points="-643.4,31.4 -656.48,16.29 -663.76,23.57 -650.68,38.68 	"/>
	<line class="st1" x1="-762.08" y1="32.7" x2="-696.8" y2="32.7"/>
	<line class="st1" x1="-775.19" y1="200.89" x2="-709.92" y2="200.89"/>
</g>
<g>
	<polygon class="st0" points="-460.58,4.33 -476,25.49 -476,177.09 -372,177.09 -372,25.49 -387.88,4.33 	"/>
	<rect x="-490.11" y="177.09" class="st0" width="132.21" height="15.87"/>
	<g>
		<rect x="-479.53" y="192.96" class="st0" width="14.1" height="58.71"/>
		<rect x="-382.57" y="192.96" class="st0" width="14.1" height="58.71"/>
	</g>
	<line class="st0" x1="-475.8" y1="25.49" x2="-372.2" y2="25.49"/>
	<polygon class="st0" points="-413.42,140.36 -413.42,140.36 -424,140.36 -434.58,140.36 -434.58,140.36 -445.17,127.43 
		-445.17,93.96 -445.17,73.71 -434.58,61.74 -434.58,61.74 -424,61.74 -413.42,61.74 -413.42,61.74 -402.83,73.71 -402.83,93.96 
		-402.83,127.43 	"/>
	<polygon class="st0" points="-413.81,240.56 -434.19,240.56 -465.48,193.36 -437.83,193.36 -410.17,193.36 -382.52,193.36 	"/>
</g>
<g>
	<g>
		<g>
			<g>
				<path class="st1" d="M-59.64,238.16c-2.09-1.14-2.59-2.48-2.64-2.63c-0.38-1.04-0.41-5.1-0.41-5.14c0-0.44,0.38-4.26,0.81-5.71
					c0.01-0.04,0.03-0.08,0.05-0.12c0.42-0.82,0.54-3.99,0.51-5.8c-0.01-0.56-1.07-55.88-1.19-59.31
					c-0.13-3.69,1.63-6.97,3.77-10.57c2.07-3.49,2.77-7.74,2.78-7.78l4.13-27.49c-0.25-0.07-0.46-0.22-0.61-0.44
					c-0.38-0.57-0.23-1.48-0.18-1.75l0.96-4.44l-0.57-0.14c-0.26-0.06-0.46-0.27-0.51-0.54c-0.13-0.63,0.05-2.66,0.63-3.77
					c0.8-1.29,1.8-1.39,1.91-1.4c0.11-0.02,4.17-0.63,6.53-0.62c0.03,0,0.06,0,0.09,0c2.39,0,6.33,0.6,6.5,0.62
					c0.05,0,1.05,0.1,1.82,1.34c0.6,1.16,0.78,3.19,0.66,3.82c-0.05,0.26-0.25,0.47-0.51,0.54l-0.57,0.14l0.96,4.44
					c0.06,0.27,0.21,1.18-0.18,1.75c-0.15,0.22-0.36,0.37-0.61,0.44l4.13,27.5c0.01,0.04,0.71,4.3,2.77,7.77
					c2.14,3.6,3.9,6.88,3.77,10.57c-0.12,3.43-1.18,58.76-1.19,59.32c-0.03,1.81,0.09,4.98,0.51,5.8c0.02,0.04,0.04,0.08,0.05,0.12
					c0.43,1.45,0.81,5.28,0.81,5.71c0,0.04-0.04,4.1-0.42,5.16c-0.04,0.13-0.54,1.48-2.59,2.6
					C-29.74,239.09-57.62,239.09-59.64,238.16z M-51.79,113.33c0,0.01,0,0.02,0,0.03L-51.79,113.33z M-35.57,113.31l0,0.03
					C-35.56,113.32-35.56,113.31-35.57,113.31z"/>
				<path class="st1" d="M-44.21,138.14c-2.21,0-3.63-0.99-4.16-1.45h-6.12c-0.2,0-0.39-0.09-0.52-0.24
					c-0.13-0.15-0.19-0.35-0.16-0.55l1.97-13.11c0.02-0.15,0.1-0.29,0.21-0.4c0.13-0.13,1.36-1.22,4.45-1.4
					c0.54-0.59,2.04-1.89,4.87-1.96c1.98-0.04,3.62,0.58,4.64,1.77c1.91-0.02,4.03,0.59,4.46,0.82c0.19,0.1,0.32,0.29,0.35,0.5
					c0.06,0.37,2.02,13.44,2.02,13.44c0.03,0.2-0.03,0.4-0.16,0.55c-0.13,0.15-0.32,0.24-0.51,0.25l-6.28,0.12
					c-0.54,0.44-2.02,1.45-4.48,1.64C-43.84,138.13-44.03,138.14-44.21,138.14z"/>
				<path class="st1" d="M-35.29,106.84c-0.1,0-0.21-0.02-0.3-0.07c-0.05-0.02-2.03-0.88-8.08-0.78c-5.04-0.04-8.18,0.82-8.22,0.83
					c-0.18,0.05-0.38,0.02-0.55-0.08c-0.16-0.1-0.28-0.26-0.32-0.45c-0.13-0.63,0.05-2.66,0.63-3.77c0.8-1.29,1.8-1.39,1.91-1.4
					c0.11-0.02,4.15-0.65,6.53-0.62c2.39,0,6.41,0.6,6.58,0.62c0.05,0,1.05,0.1,1.82,1.34c0.6,1.16,0.78,3.19,0.66,3.82
					c-0.04,0.21-0.18,0.39-0.37,0.49C-35.08,106.82-35.18,106.84-35.29,106.84z"/>
				<path class="st1" d="M-43.73,217.63c-0.01,0-0.02,0-0.02,0c-9.69-0.32-15.52-6.46-17.32-18.24l-0.03-0.21
					c-0.54-3.47-0.41-6.59-0.02-15.87l0.07-1.69c0.46-11.01,7.28-18.12,17.37-18.12c0,0,0,0,0,0c9.38,0,16.01,6.95,17.3,18.13
					c1.06,9.16,0.73,11.48,0.19,15.32c-0.09,0.64-0.19,1.32-0.28,2.08l-0.03,0.27c-1.45,11.58-7.23,17.74-17.18,18.32
					C-43.7,217.63-43.71,217.63-43.73,217.63z"/>
			</g>
		</g>
		<g>
			<g>
				<path class="st1" d="M-86.29,85.66h3.55c0.71,0,1.18-0.47,1.18-1.18V65.56c0-0.71-0.47-1.18-1.18-1.18h-51.78v-22.7
					c0-0.71-0.47-1.18-1.18-1.18h-3.49V24.66h4.2c0.71,0,1.18-0.47,1.18-1.18v-5.26c0-0.71-0.47-1.18-1.18-1.18h-17.02
					c-0.71,0-1.18,0.47-1.18,1.18v5.26c0,0.71,0.47,1.18,1.18,1.18h4.2v15.6h-3.25c-0.71,0-1.18,0.47-1.18,1.18v22.7h-52.01
					c-0.71,0-1.18,0.47-1.18,1.18v18.91c0,0.71,0.47,1.18,1.18,1.18h3.07c3.31,0,5.91,2.6,5.91,5.91c0,2.6-1.89,4.96-4.26,5.67
					h-0.24c-0.47,0-0.95,0-1.42,0.24l0,0c-0.24,0-0.47,0-0.71,0.24c-2.13,0.95-3.55,3.07-3.55,5.44v37.35
					c0,1.89,0.71,3.31,2.13,4.49c0,0-0.24,0-0.24,0.24l-0.24,0.24c0,0-0.24,0-0.24,0.24l-0.24,0.24c0,0,0,0.24-0.24,0.24
					c0,0,0,0.24-0.24,0.24c0,0,0,0.24-0.24,0.24c0,0,0,0.24-0.24,0.24c0,0,0,0.24-0.24,0.24v0.24v0.24v0.24v0.24v0.24v0.24
					c0,0.24,0,0.24,0,0.47c0,0,0,0,0,0.24c0,0.24,0,0.47,0,0.47v37.35c0,1.89,0.71,3.31,2.13,4.49c-1.18,0.95-2.13,2.6-2.13,4.49
					v37.35c0,3.07,2.6,5.67,5.67,5.67h113.01c3.07,0,5.67-2.6,5.67-5.67v-37.83c0-1.89-0.71-3.31-2.13-4.49
					c1.18-0.95,2.13-2.6,2.13-4.49v-37.12c0-1.89-0.71-3.31-2.13-4.49c1.18-0.95,2.13-2.6,2.13-4.49v-37.35
					c0-3.07-2.36-5.44-5.2-5.67c-0.24,0-0.24,0-0.47,0c-2.84-0.47-4.96-2.84-4.96-5.67C-91.97,88.26-89.37,85.66-86.29,85.66z"/>
				<path class="st1" d="M-162.89,91.57c0-1.65,0.71-3.07,1.65-4.02c1.18-1.18,2.6-1.65,4.02-1.65h26.95c3.31,0,5.91,2.6,5.91,5.91
					c0,1.65-0.71,3.07-1.65,4.02c-1.18,1.18-2.6,1.65-4.02,1.65h-27.19C-160.29,97.24-162.89,94.64-162.89,91.57z"/>
			</g>
			<line class="st1" x1="-203.32" y1="191.33" x2="-82.59" y2="191.33"/>
			<line class="st1" x1="-203.32" y1="144.59" x2="-83.59" y2="144.59"/>
			<line class="st1" x1="-198.6" y1="139.56" x2="-89.37" y2="139.56"/>
			<line class="st1" x1="-198.6" y1="185.83" x2="-89.37" y2="185.83"/>
			<line class="st1" x1="-198.6" y1="232.09" x2="-88.36" y2="232.09"/>
			<line class="st1" x1="-189.45" y1="91.57" x2="-169.92" y2="91.57"/>
			<line class="st1" x1="-118.11" y1="91.57" x2="-98.59" y2="91.57"/>
			<line class="st1" x1="-150.09" y1="20.65" x2="-136.73" y2="20.65"/>
			<line class="st1" x1="-143.75" y1="21.74" x2="-143.75" y2="41.15"/>
		</g>
		<g>
			<g transform="translate(3954.8215,587.84876)">
				<path class="st1" d="M-4183-409.37h-3.77c-0.71-3.76-2.69-7.02-5.45-9.34s-6.31-3.71-10.15-3.71
					c-3.84,0.01-7.39,1.39-10.15,3.71c-2.76,2.32-4.74,5.58-5.45,9.34h-3.77l0.01,28.43h3.76c0.71,3.76,2.69,7.02,5.45,9.34
					c2.76,2.32,6.31,3.71,10.15,3.71c3.85,0,7.39-1.39,10.15-3.71c2.76-2.32,4.74-5.58,5.45-9.34h3.77V-409.37z"/>
			</g>
			<g transform="translate(3954.8215,587.84876)">
				<path class="st1" d="M-4197.49-348.88h10.98c0.1,0,0.19-0.03,0.27-0.07c0.08-0.05,0.15-0.12,0.19-0.2l0.52-1.01l0.52-1.01
					l3.09-2.08l3.08-2.08c0.04-0.02,0.07-0.05,0.1-0.08c0.03-0.03,0.06-0.06,0.08-0.1c0,0,0,0,0,0c0,0,0,0,0,0c0,0,0,0,0,0
					c0,0,0,0,0,0c0.01-0.02,0.02-0.04,0.03-0.07c0.01-0.02,0.02-0.05,0.02-0.07c0,0,0-0.01,0-0.01c0,0,0-0.01,0-0.01
					c0,0,0-0.01,0-0.01c0,0,0-0.01,0-0.01c0,0,0-0.01,0-0.01c0,0,0-0.01,0-0.01c0-0.01,0-0.01,0-0.02c0-0.01,0-0.01,0-0.02
					c0,0,0-0.01,0-0.01c0,0,0-0.01,0-0.01c0,0,0,0,0,0s0,0,0,0v-39.37v-39.37c0-0.07-0.01-0.13-0.04-0.19
					c-0.02-0.06-0.06-0.12-0.1-0.16l-3.08-3.9l-3.08-3.9v-1.68v-1.68c0.31-0.19,0.56-0.44,0.74-0.75c0.18-0.3,0.28-0.66,0.28-1.03
					c0-0.59-0.25-1.11-0.65-1.49s-0.94-0.61-1.54-0.61h-11.44h-21.2c-0.59,0-1.14,0.23-1.54,0.61s-0.65,0.91-0.65,1.49
					c0,0.38,0.1,0.73,0.28,1.03c0.18,0.3,0.44,0.56,0.74,0.75v1.68v1.68l-3.08,3.9l-3.08,3.9c-0.04,0.05-0.08,0.1-0.1,0.16
					s-0.04,0.12-0.04,0.19v39.37v39.37c0,0,0,0,0,0s0,0,0,0c0,0,0,0.01,0,0.01c0,0,0,0.01,0,0.01c0,0.01,0,0.01,0,0.02
					c0,0.01,0,0.01,0,0.02c0,0,0,0.01,0,0.01c0,0,0,0.01,0,0.01c0,0,0,0.01,0,0.01c0,0,0,0.01,0,0.01c0,0,0,0.01,0,0.01
					c0,0,0,0.01,0,0.01c0.01,0.02,0.01,0.05,0.02,0.07c0.01,0.02,0.02,0.05,0.03,0.07c0,0,0,0,0,0c0,0,0,0,0,0c0,0,0,0,0,0
					c0,0,0,0,0,0c0.02,0.04,0.05,0.07,0.08,0.1c0.03,0.03,0.06,0.06,0.1,0.08l3.09,2.08l3.09,2.08l0.52,1.01l0.52,1.01
					c0.04,0.09,0.11,0.15,0.19,0.2c0.08,0.05,0.17,0.07,0.27,0.07H-4197.49L-4197.49-348.88z"/>
			</g>
			<line class="st1" x1="-265.03" y1="142.71" x2="-230.07" y2="142.71"/>
			<line class="st1" x1="-271.26" y1="152.97" x2="-223.84" y2="152.97"/>
			<line class="st1" x1="-271.26" y1="232.42" x2="-223.84" y2="232.42"/>
		</g>
	</g>
</g>
<g>
	<g>
		<g>
			<g>
				<path class="st2" d="M110.84,74.08H76.53c-1.35,0-2.45,1.1-2.45,2.45v34.31c0,1.35,1.1,2.45,2.45,2.45s2.45-1.1,2.45-2.45V78.98
					h31.86c1.35,0,2.45-1.1,2.45-2.45S112.2,74.08,110.84,74.08z"/>
				<path class="st2" d="M179.47,74.08h-34.32c-1.35,0-2.45,1.1-2.45,2.45s1.1,2.45,2.45,2.45h31.86v31.86
					c0,1.35,1.1,2.45,2.45,2.45s2.45-1.1,2.45-2.45V76.53C181.92,75.17,180.83,74.08,179.47,74.08z"/>
				<path class="st2" d="M179.47,142.71c-1.35,0-2.45,1.1-2.45,2.45v31.86h-31.86c-1.35,0-2.45,1.1-2.45,2.45s1.1,2.45,2.45,2.45
					h34.31c1.35,0,2.45-1.1,2.45-2.45v-34.32C181.92,143.8,180.83,142.71,179.47,142.71z"/>
				<path class="st2" d="M110.84,177.02H78.98v-31.86c0-1.35-1.1-2.45-2.45-2.45s-2.45,1.1-2.45,2.45v34.31
					c0,1.35,1.1,2.45,2.45,2.45h34.31c1.35,0,2.45-1.1,2.45-2.45C113.29,178.12,112.2,177.02,110.84,177.02z"/>
			</g>
		</g>
	</g>
</g>
<circle class="st3" cx="128" cy="128" r="118"/>
</svg>
